<svg id="visual" viewBox="0 0 1024 400" width="1024" height="400" xmlns="http://www.w3.org/2000/svg" xmlns:xlink="http://www.w3.org/1999/xlink" version="1.1"><path d="M0 202L146 202L146 185L293 185L293 205L439 205L439 174L585 174L585 227L731 227L731 189L878 189L878 199L1024 199L1024 161L1024 0L1024 0L878 0L878 0L731 0L731 0L585 0L585 0L439 0L439 0L293 0L293 0L146 0L146 0L0 0Z" fill="#293454"></path><path d="M0 160L146 160L146 115L293 115L293 91L439 91L439 165L585 165L585 158L731 158L731 126L878 126L878 159L1024 159L1024 141L1024 0L1024 0L878 0L878 0L731 0L731 0L585 0L585 0L439 0L439 0L293 0L293 0L146 0L146 0L0 0Z" fill="#29345b"></path><path d="M0 64L146 64L146 72L293 72L293 95L439 95L439 74L585 74L585 81L731 81L731 47L878 47L878 99L1024 99L1024 82L1024 0L1024 0L878 0L878 0L731 0L731 0L585 0L585 0L439 0L439 0L293 0L293 0L146 0L146 0L0 0Z" fill="#293462"></path></svg>