<svg id="visual" viewBox="0 0 900 600" width="900" height="600" xmlns="http://www.w3.org/2000/svg" xmlns:xlink="http://www.w3.org/1999/xlink" version="1.1"><g><g transform="translate(551 151)"><path d="M0 -147L127.3 -73.5L127.3 73.5L0 147L-127.3 73.5L-127.3 -73.5Z" fill="#293462"></path></g><g transform="translate(195 479)"><path d="M0 -140L121.2 -70L121.2 70L0 140L-121.2 70L-121.2 -70Z" fill="#293462"></path></g><g transform="translate(51 192)"><path d="M0 -141L122.1 -70.5L122.1 70.5L0 141L-122.1 70.5L-122.1 -70.5Z" fill="#293462"></path></g><g transform="translate(839 454)"><path d="M0 -134L116 -67L116 67L0 134L-116 67L-116 -67Z" fill="#293462"></path></g><g transform="translate(898 137)"><path d="M0 -97L84 -48.5L84 48.5L0 97L-84 48.5L-84 -48.5Z" fill="#293462"></path></g></g></svg>