<svg id="visual" viewBox="0 0 984 196" width="984" height="196" xmlns="http://www.w3.org/2000/svg" xmlns:xlink="http://www.w3.org/1999/xlink" version="1.1"><path d="M0 63L23.5 64.2C47 65.3 94 67.7 140.8 68C187.7 68.3 234.3 66.7 281.2 65C328 63.3 375 61.7 421.8 60.8C468.7 60 515.3 60 562.2 61C609 62 656 64 702.8 62.5C749.7 61 796.3 56 843.2 58.2C890 60.3 937 69.7 960.5 74.3L984 79L984 0L960.5 0C937 0 890 0 843.2 0C796.3 0 749.7 0 702.8 0C656 0 609 0 562.2 0C515.3 0 468.7 0 421.8 0C375 0 328 0 281.2 0C234.3 0 187.7 0 140.8 0C94 0 47 0 23.5 0L0 0Z" fill="#151b34"></path><path d="M0 53L23.5 51.8C47 50.7 94 48.3 140.8 46C187.7 43.7 234.3 41.3 281.2 41.7C328 42 375 45 421.8 46.7C468.7 48.3 515.3 48.7 562.2 47.2C609 45.7 656 42.3 702.8 42.3C749.7 42.3 796.3 45.7 843.2 49.7C890 53.7 937 58.3 960.5 60.7L984 63L984 0L960.5 0C937 0 890 0 843.2 0C796.3 0 749.7 0 702.8 0C656 0 609 0 562.2 0C515.3 0 468.7 0 421.8 0C375 0 328 0 281.2 0C234.3 0 187.7 0 140.8 0C94 0 47 0 23.5 0L0 0Z" fill="#1a213f"></path><path d="M0 44L23.5 44.8C47 45.7 94 47.3 140.8 46.3C187.7 45.3 234.3 41.7 281.2 42.2C328 42.7 375 47.3 421.8 46.5C468.7 45.7 515.3 39.3 562.2 38.3C609 37.3 656 41.7 702.8 42C749.7 42.3 796.3 38.7 843.2 38.3C890 38 937 41 960.5 42.5L984 44L984 0L960.5 0C937 0 890 0 843.2 0C796.3 0 749.7 0 702.8 0C656 0 609 0 562.2 0C515.3 0 468.7 0 421.8 0C375 0 328 0 281.2 0C234.3 0 187.7 0 140.8 0C94 0 47 0 23.5 0L0 0Z" fill="#1f274a"></path><path d="M0 36L23.5 34.7C47 33.3 94 30.7 140.8 28.8C187.7 27 234.3 26 281.2 26.8C328 27.7 375 30.3 421.8 31.7C468.7 33 515.3 33 562.2 31.5C609 30 656 27 702.8 26.2C749.7 25.3 796.3 26.7 843.2 25.8C890 25 937 22 960.5 20.5L984 19L984 0L960.5 0C937 0 890 0 843.2 0C796.3 0 749.7 0 702.8 0C656 0 609 0 562.2 0C515.3 0 468.7 0 421.8 0C375 0 328 0 281.2 0C234.3 0 187.7 0 140.8 0C94 0 47 0 23.5 0L0 0Z" fill="#242d56"></path><path d="M0 11L23.5 12.2C47 13.3 94 15.7 140.8 17C187.7 18.3 234.3 18.7 281.2 18C328 17.3 375 15.7 421.8 15.7C468.7 15.7 515.3 17.3 562.2 16.7C609 16 656 13 702.8 11.8C749.7 10.7 796.3 11.3 843.2 11.8C890 12.3 937 12.7 960.5 12.8L984 13L984 0L960.5 0C937 0 890 0 843.2 0C796.3 0 749.7 0 702.8 0C656 0 609 0 562.2 0C515.3 0 468.7 0 421.8 0C375 0 328 0 281.2 0C234.3 0 187.7 0 140.8 0C94 0 47 0 23.5 0L0 0Z" fill="#293462"></path></svg>