<svg id="visual" viewBox="0 0 540 1200" width="540" height="1200" xmlns="http://www.w3.org/2000/svg" xmlns:xlink="http://www.w3.org/1999/xlink" version="1.1"><path d="M473 1200L468.5 1171.5C464 1143 455 1086 436.7 1028.8C418.3 971.7 390.7 914.3 385.2 857.2C379.7 800 396.3 743 403.2 685.8C410 628.7 407 571.3 400 514.2C393 457 382 400 387 342.8C392 285.7 413 228.3 413.2 171.2C413.3 114 392.7 57 382.3 28.5L372 0L540 0L540 28.5C540 57 540 114 540 171.2C540 228.3 540 285.7 540 342.8C540 400 540 457 540 514.2C540 571.3 540 628.7 540 685.8C540 743 540 800 540 857.2C540 914.3 540 971.7 540 1028.8C540 1086 540 1143 540 1171.5L540 1200Z" fill="#293462" stroke-linecap="round" stroke-linejoin="miter"></path></svg>