<svg id="visual" viewBox="0 0 984 196" width="984" height="196" xmlns="http://www.w3.org/2000/svg" xmlns:xlink="http://www.w3.org/1999/xlink" version="1.1"><path d="M0 122L6.5 130.2C13 138.3 26 154.7 39.2 158.2C52.3 161.7 65.7 152.3 78.8 147.8C92 143.3 105 143.7 118 145C131 146.3 144 148.7 157.2 149.2C170.3 149.7 183.7 148.3 196.8 142.2C210 136 223 125 236.2 125.7C249.3 126.3 262.7 138.7 275.8 149.3C289 160 302 169 315 172C328 175 341 172 354.2 164.8C367.3 157.7 380.7 146.3 393.8 137.8C407 129.3 420 123.7 433 124.8C446 126 459 134 472.2 140.7C485.3 147.3 498.7 152.7 511.8 148.2C525 143.7 538 129.3 551 124.3C564 119.3 577 123.7 590.2 134C603.3 144.3 616.7 160.7 629.8 161C643 161.3 656 145.7 669 142.5C682 139.3 695 148.7 708.2 150C721.3 151.3 734.7 144.7 747.8 145.7C761 146.7 774 155.3 787.2 151.3C800.3 147.3 813.7 130.7 826.8 128C840 125.3 853 136.7 866 137.7C879 138.7 892 129.3 905.2 124.3C918.3 119.3 931.7 118.7 944.8 120.2C958 121.7 971 125.3 977.5 127.2L984 129" fill="none" stroke-linecap="round" stroke-linejoin="miter" stroke="#293462" stroke-width="20"></path></svg>