<svg id="visual" viewBox="0 0 984 196" width="984" height="196" xmlns="http://www.w3.org/2000/svg" xmlns:xlink="http://www.w3.org/1999/xlink" version="1.1"><path d="M0 161L23.5 161.3C47 161.7 94 162.3 140.8 156.7C187.7 151 234.3 139 281.2 134.5C328 130 375 133 421.8 137.3C468.7 141.7 515.3 147.3 562.2 153C609 158.7 656 164.3 702.8 161.5C749.7 158.7 796.3 147.3 843.2 141.3C890 135.3 937 134.7 960.5 134.3L984 134L984 197L960.5 197C937 197 890 197 843.2 197C796.3 197 749.7 197 702.8 197C656 197 609 197 562.2 197C515.3 197 468.7 197 421.8 197C375 197 328 197 281.2 197C234.3 197 187.7 197 140.8 197C94 197 47 197 23.5 197L0 197Z" fill="#293462" stroke-linecap="round" stroke-linejoin="miter"></path></svg>